<svg width="25" height="25" viewBox="0 0 25 25" fill="none" xmlns="http://www.w3.org/2000/svg">
<mask id="mask0_5301_31038" style="mask-type:alpha" maskUnits="userSpaceOnUse" x="0" y="0" width="25" height="25">
<rect x="0.495117" y="0.845703" width="24" height="24" fill="#CFCFCF"/>
</mask>
<g mask="url(#mask0_5301_31038)">
<path d="M10.0451 15.9957L18.5201 7.5207C18.7201 7.3207 18.9534 7.2207 19.2201 7.2207C19.4867 7.2207 19.7201 7.3207 19.9201 7.5207C20.1201 7.7207 20.2201 7.9582 20.2201 8.2332C20.2201 8.5082 20.1201 8.7457 19.9201 8.9457L10.7451 18.1457C10.5451 18.3457 10.3117 18.4457 10.0451 18.4457C9.77841 18.4457 9.54508 18.3457 9.34508 18.1457L5.04508 13.8457C4.84508 13.6457 4.74925 13.4082 4.75758 13.1332C4.76591 12.8582 4.87008 12.6207 5.07008 12.4207C5.27008 12.2207 5.50758 12.1207 5.78258 12.1207C6.05758 12.1207 6.29508 12.2207 6.49508 12.4207L10.0451 15.9957Z" fill="#CFCFCF"/>
</g>
</svg>
