<svg width="25" height="25" viewBox="0 0 25 25" fill="none" xmlns="http://www.w3.org/2000/svg">
<mask id="mask0_5301_31040" style="mask-type:alpha" maskUnits="userSpaceOnUse" x="0" y="0" width="25" height="25">
<rect x="0.495117" y="0.845703" width="24" height="24" fill="#D9D9D9"/>
</mask>
<g mask="url(#mask0_5301_31040)">
<path d="M11.0951 14.2457L8.94512 12.0957C8.76178 11.9124 8.52845 11.8207 8.24512 11.8207C7.96178 11.8207 7.72845 11.9124 7.54512 12.0957C7.36178 12.279 7.27012 12.5124 7.27012 12.7957C7.27012 13.079 7.36178 13.3124 7.54512 13.4957L10.3951 16.3457C10.5951 16.5457 10.8285 16.6457 11.0951 16.6457C11.3618 16.6457 11.5951 16.5457 11.7951 16.3457L17.4451 10.6957C17.6285 10.5124 17.7201 10.279 17.7201 9.9957C17.7201 9.71237 17.6285 9.47904 17.4451 9.2957C17.2618 9.11237 17.0285 9.0207 16.7451 9.0207C16.4618 9.0207 16.2285 9.11237 16.0451 9.2957L11.0951 14.2457ZM5.49512 21.8457C4.94512 21.8457 4.47428 21.6499 4.08262 21.2582C3.69095 20.8665 3.49512 20.3957 3.49512 19.8457V5.8457C3.49512 5.2957 3.69095 4.82487 4.08262 4.4332C4.47428 4.04154 4.94512 3.8457 5.49512 3.8457H19.4951C20.0451 3.8457 20.516 4.04154 20.9076 4.4332C21.2993 4.82487 21.4951 5.2957 21.4951 5.8457V19.8457C21.4951 20.3957 21.2993 20.8665 20.9076 21.2582C20.516 21.6499 20.0451 21.8457 19.4951 21.8457H5.49512Z" fill="#CFCFCF"/>
</g>
</svg>
