<svg width="24" height="24" viewBox="0 0 24 24" fill="none" xmlns="http://www.w3.org/2000/svg">
<path d="M1.8999 20.5123C1.8999 16.7368 5.05419 13.6761 11.4999 13.6761C17.9456 13.6761 21.0999 16.7368 21.0999 20.5123C21.0999 21.113 20.6617 21.5999 20.1211 21.5999H2.87873C2.33814 21.5999 1.8999 21.113 1.8999 20.5123Z" fill="#FF5C00"/>
<path d="M15.0999 5.9999C15.0999 7.98813 13.4881 9.5999 11.4999 9.5999C9.51168 9.5999 7.8999 7.98813 7.8999 5.9999C7.8999 4.01168 9.51168 2.3999 11.4999 2.3999C13.4881 2.3999 15.0999 4.01168 15.0999 5.9999Z" fill="#FF5C00"/>
<path d="M20.2002 20.1123C20.2002 18.5274 19.5494 17.1123 18.2041 16.0684C16.8366 15.0072 14.6756 14.2764 11.5996 14.2764C8.52389 14.2764 6.36359 15.0073 4.99609 16.0684C3.65075 17.1123 3.00003 18.5274 3 20.1123C3 20.1558 3.01361 20.1841 3.02344 20.2002H20.1768C20.1866 20.1841 20.2002 20.1557 20.2002 20.1123ZM14.2002 5.59961C14.2 4.16385 13.0354 3 11.5996 3C10.164 3.00021 9.00021 4.16398 9 5.59961C9 7.03542 10.1638 8.19999 11.5996 8.2002C13.0355 8.2002 14.2002 7.03555 14.2002 5.59961ZM22.2002 20.1123C22.2002 21.1635 21.4101 22.2002 20.2207 22.2002H2.97852C1.78932 22.2 1 21.1634 1 20.1123C1.00003 17.9217 1.92644 15.9185 3.76953 14.4883C5.59049 13.0753 8.23015 12.2764 11.5996 12.2764C14.9693 12.2764 17.6096 13.0752 19.4307 14.4883C21.2737 15.9185 22.2002 17.9218 22.2002 20.1123ZM16.2002 5.59961C16.2002 8.14012 14.1401 10.2002 11.5996 10.2002C9.05928 10.2 7 8.13999 7 5.59961C7.00021 3.05941 9.05941 1.00021 11.5996 1C14.14 1 16.2 3.05928 16.2002 5.59961Z" fill="#FF5C00"/>
</svg>
