<svg width="19" height="18" viewBox="0 0 19 18" fill="none" xmlns="http://www.w3.org/2000/svg">
<path d="M16.4604 13.818C16.1995 14.4206 15.8907 14.9754 15.5329 15.4854C15.0453 16.1807 14.646 16.662 14.3382 16.9293C13.8612 17.368 13.3501 17.5926 12.8028 17.6054C12.4099 17.6054 11.9361 17.4936 11.3845 17.2668C10.8312 17.0411 10.3226 16.9293 9.85764 16.9293C9.36997 16.9293 8.84695 17.0411 8.28751 17.2668C7.72722 17.4936 7.27586 17.6118 6.93077 17.6235C6.40593 17.6459 5.88281 17.4148 5.36064 16.9293C5.02736 16.6386 4.6105 16.1403 4.11112 15.4343C3.57532 14.6805 3.13482 13.8063 2.78972 12.8096C2.42014 11.7331 2.23486 10.6907 2.23486 9.68151C2.23486 8.52548 2.48466 7.52842 2.985 6.69288C3.37823 6.02175 3.90135 5.49234 4.55609 5.1037C5.21082 4.71505 5.91827 4.517 6.68012 4.50433C7.09698 4.50433 7.64364 4.63328 8.32297 4.8867C9.00038 5.14097 9.43535 5.26991 9.62605 5.26991C9.76862 5.26991 10.2518 5.11914 11.071 4.81855C11.8456 4.53979 12.4994 4.42437 13.035 4.46983C14.4862 4.58696 15.5766 5.15907 16.3017 6.18977C15.0037 6.97622 14.3617 8.07774 14.3744 9.49081C14.3862 10.5915 14.7855 11.5074 15.5702 12.2346C15.9258 12.5722 16.323 12.8331 16.7649 13.0183C16.6691 13.2962 16.5679 13.5624 16.4604 13.818ZM13.1318 0.720098C13.1318 1.58279 12.8167 2.38829 12.1884 3.13385C11.4303 4.02018 10.5133 4.53234 9.51893 4.45152C9.50626 4.34802 9.49892 4.23909 9.49892 4.12463C9.49892 3.29644 9.85945 2.41012 10.4997 1.68543C10.8194 1.31851 11.2259 1.01341 11.7189 0.770036C12.2108 0.530289 12.6761 0.397705 13.1137 0.375C13.1265 0.490329 13.1318 0.605665 13.1318 0.720087V0.720098Z" fill="white"/>
</svg>
