<svg width="25" height="24" viewBox="0 0 25 24" fill="none" xmlns="http://www.w3.org/2000/svg">
<mask id="mask0_5029_36208" style="mask-type:alpha" maskUnits="userSpaceOnUse" x="0" y="0" width="25" height="24">
<rect x="0.0708008" width="24" height="24" fill="#D9D9D9"/>
</mask>
<g mask="url(#mask0_5029_36208)">
<path d="M14.5459 12L7.19591 4.65C6.94591 4.4 6.82508 4.10417 6.83341 3.7625C6.84174 3.42083 6.97091 3.125 7.22091 2.875C7.47091 2.625 7.76674 2.5 8.10841 2.5C8.45008 2.5 8.74591 2.625 8.99591 2.875L16.6709 10.575C16.8709 10.775 17.0209 11 17.1209 11.25C17.2209 11.5 17.2709 11.75 17.2709 12C17.2709 12.25 17.2209 12.5 17.1209 12.75C17.0209 13 16.8709 13.225 16.6709 13.425L8.97091 21.125C8.72091 21.375 8.42924 21.4958 8.09591 21.4875C7.76258 21.4792 7.47091 21.35 7.22091 21.1C6.97091 20.85 6.84591 20.5542 6.84591 20.2125C6.84591 19.8708 6.97091 19.575 7.22091 19.325L14.5459 12Z" fill="#1D1D1F"/>
</g>
</svg>
