<svg width="40" height="41" viewBox="0 0 40 41" fill="none" xmlns="http://www.w3.org/2000/svg">
<path d="M19.999 30.75C20.4663 30.75 20.8583 30.592 21.175 30.276C21.4917 29.96 21.65 29.5683 21.65 29.101C21.65 28.6337 21.492 28.2417 21.176 27.925C20.86 27.6083 20.4683 27.45 20.001 27.45C19.5337 27.45 19.1417 27.608 18.825 27.924C18.5083 28.24 18.35 28.6317 18.35 29.099C18.35 29.5663 18.508 29.9583 18.824 30.275C19.14 30.5917 19.5317 30.75 19.999 30.75ZM18.65 23.1H21.65V10.45H18.65V23.1ZM20.0135 40.75C17.2555 40.75 14.6638 40.225 12.2385 39.175C9.81283 38.125 7.69167 36.6917 5.875 34.875C4.05833 33.0583 2.625 30.936 1.575 28.508C0.525 26.08 0 23.4857 0 20.725C0 17.9643 0.525 15.37 1.575 12.942C2.625 10.514 4.05833 8.4 5.875 6.6C7.69167 4.8 9.814 3.375 12.242 2.325C14.67 1.275 17.2643 0.75 20.025 0.75C22.7857 0.75 25.38 1.275 27.808 2.325C30.236 3.375 32.35 4.8 34.15 6.6C35.95 8.4 37.375 10.5167 38.425 12.95C39.475 15.3833 40 17.9788 40 20.7365C40 23.4945 39.475 26.0862 38.425 28.5115C37.375 30.9372 35.95 33.0553 34.15 34.866C32.35 36.6763 30.2333 38.1097 27.8 39.166C25.3667 40.222 22.7712 40.75 20.0135 40.75Z" fill="#CFCFCF"/>
</svg>
