<svg width="21" height="25" viewBox="0 0 21 25" fill="none" xmlns="http://www.w3.org/2000/svg">
<path d="M10.5 21.5797L4.64284 24.0899C3.71312 24.4851 2.8299 24.4095 1.99315 23.8633C1.15641 23.3171 0.738037 22.5443 0.738037 21.5448V3.45028C0.738037 2.68326 1.01114 2.02665 1.55735 1.48044C2.10356 0.934236 2.76017 0.661133 3.52718 0.661133H17.4729C18.2399 0.661133 18.8965 0.934236 19.4427 1.48044C19.9889 2.02665 20.262 2.68326 20.262 3.45028V21.5448C20.262 22.5443 19.8437 23.3171 19.0069 23.8633C18.1702 24.4095 17.287 24.4851 16.3572 24.0899L10.5 21.5797Z" fill="white" fill-opacity="0.6"/>
<path d="M3.5271 1.41113H17.4734C18.0397 1.41124 18.5063 1.60418 18.9128 2.01074C19.3194 2.41735 19.5124 2.8838 19.5125 3.4502V21.5449C19.5124 22.2909 19.2217 22.8277 18.5974 23.2354C17.9738 23.6425 17.3553 23.6975 16.6541 23.4004L10.7957 20.8906L10.4998 20.7637L10.2048 20.8906L4.34937 23.3994C3.64676 23.698 3.02766 23.6431 2.40308 23.2354C1.77855 22.8277 1.48806 22.2911 1.48804 21.5449V3.4502C1.48806 2.88371 1.68099 2.4174 2.08765 2.01074C2.4943 1.60408 2.96062 1.41115 3.5271 1.41113Z" stroke="#1D1D1F" stroke-opacity="0.2" stroke-width="1.5"/>
</svg>
