<svg width="24" height="24" viewBox="0 0 24 24" fill="none" xmlns="http://www.w3.org/2000/svg">
<path d="M12 20.675C11.7667 20.675 11.5292 20.6333 11.2875 20.55C11.0458 20.4667 10.8333 20.3333 10.65 20.15L8.925 18.575C7.15833 16.9583 5.5625 15.3542 4.1375 13.7625C2.7125 12.1708 2 10.4167 2 8.5C2 6.93333 2.525 5.625 3.575 4.575C4.625 3.525 5.93333 3 7.5 3C8.38333 3 9.21667 3.1875 10 3.5625C10.7833 3.9375 11.45 4.45 12 5.1C12.55 4.45 13.2167 3.9375 14 3.5625C14.7833 3.1875 15.6167 3 16.5 3C18.0667 3 19.375 3.525 20.425 4.575C21.475 5.625 22 6.93333 22 8.5C22 10.4167 21.2917 12.175 19.875 13.775C18.4583 15.375 16.85 16.9833 15.05 18.6L13.35 20.15C13.1667 20.3333 12.9542 20.4667 12.7125 20.55C12.4708 20.6333 12.2333 20.675 12 20.675Z" fill="#FF5C00"/>
</svg>
