<svg width="25" height="24" viewBox="0 0 25 24" fill="none" xmlns="http://www.w3.org/2000/svg">
<path d="M11.171 13.8L9.02105 11.65C8.83771 11.4667 8.60438 11.375 8.32104 11.375C8.03771 11.375 7.80438 11.4667 7.62105 11.65C7.43771 11.8333 7.34605 12.0667 7.34605 12.35C7.34605 12.6333 7.43771 12.8667 7.62105 13.05L10.471 15.9C10.671 16.1 10.9044 16.2 11.171 16.2C11.4377 16.2 11.671 16.1 11.871 15.9L17.521 10.25C17.7044 10.0667 17.796 9.83333 17.796 9.55C17.796 9.26667 17.7044 9.03333 17.521 8.85C17.3377 8.66667 17.1044 8.575 16.821 8.575C16.5377 8.575 16.3044 8.66667 16.121 8.85L11.171 13.8ZM12.571 22C11.1877 22 9.88771 21.7375 8.67104 21.2125C7.45438 20.6875 6.39604 19.975 5.49604 19.075C4.59604 18.175 3.88354 17.1167 3.35854 15.9C2.83354 14.6833 2.57104 13.3833 2.57104 12C2.57104 10.6167 2.83354 9.31667 3.35854 8.1C3.88354 6.88333 4.59604 5.825 5.49604 4.925C6.39604 4.025 7.45438 3.3125 8.67104 2.7875C9.88771 2.2625 11.1877 2 12.571 2C13.9544 2 15.2544 2.2625 16.471 2.7875C17.6877 3.3125 18.746 4.025 19.646 4.925C20.546 5.825 21.2585 6.88333 21.7835 8.1C22.3085 9.31667 22.571 10.6167 22.571 12C22.571 13.3833 22.3085 14.6833 21.7835 15.9C21.2585 17.1167 20.546 18.175 19.646 19.075C18.746 19.975 17.6877 20.6875 16.471 21.2125C15.2544 21.7375 13.9544 22 12.571 22Z" fill="#FF5C00"/>
</svg>
