<svg width="24" height="24" viewBox="0 0 24 24" fill="none" xmlns="http://www.w3.org/2000/svg">
<mask id="mask0_5872_15389" style="mask-type:alpha" maskUnits="userSpaceOnUse" x="0" y="0" width="24" height="24">
<rect width="24" height="24" fill="#D9D9D9"/>
</mask>
<g mask="url(#mask0_5872_15389)">
<path d="M16.6063 2.78711C18.2417 2.78711 19.5673 4.11281 19.5674 5.74819V15.9481C19.5674 16.4933 19.1255 16.9351 18.5804 16.9351H18.2517V19.2388H18.5804C19.1255 19.2388 19.5674 19.6807 19.5674 20.2259C19.5674 20.771 19.1255 21.2129 18.5804 21.2129H7.55828C5.83194 21.2129 4.43237 19.8134 4.43237 18.087V5.74819C4.43248 4.11288 5.75815 2.78722 7.39346 2.78711H16.6063ZM7.55828 16.9351C6.92229 16.9351 6.40648 17.4511 6.40643 18.087C6.40643 18.7229 6.92226 19.2388 7.55828 19.2388H16.2777V16.9351H7.55828ZM12.0856 5.97611C12.0345 5.94199 11.9663 5.94206 11.9151 5.97611C11.0504 6.54244 10.4757 7.52393 10.4016 8.65371C9.66768 8.49717 8.87904 8.72503 8.27594 9.14911C8.2334 9.17757 8.21099 9.23172 8.21661 9.28285C8.31333 10.1822 8.76597 11.1133 9.55682 11.5658C9.38334 12.1321 9.3771 12.7608 9.50219 13.3214C9.51357 13.3726 9.55367 13.4155 9.60203 13.4269C10.3957 13.6289 11.3314 13.512 11.9971 12.9371C12.6627 13.512 13.5985 13.6288 14.3921 13.4269C14.4405 13.4155 14.4806 13.3726 14.492 13.3214C14.617 12.7608 14.6117 12.132 14.4383 11.5658C15.2291 11.1133 15.6808 10.1822 15.7775 9.28285H15.7832C15.7888 9.22882 15.7665 9.17755 15.7239 9.14911C15.1209 8.72513 14.3358 8.49732 13.5991 8.65371C13.5251 7.52119 12.953 6.53963 12.0856 5.97611Z" fill="#FF5C00"/>
</g>
</svg>
