<svg width="24" height="24" viewBox="0 0 24 24" fill="none" xmlns="http://www.w3.org/2000/svg">
<mask id="mask0_6635_3884" style="mask-type:alpha" maskUnits="userSpaceOnUse" x="0" y="0" width="24" height="24">
<rect y="24" width="24" height="24" transform="rotate(-90 0 24)" fill="#D9D9D9"/>
</mask>
<g mask="url(#mask0_6635_3884)">
<path d="M21.2023 12.0027C21.2023 12.1104 21.1847 12.2097 21.1496 12.3007C21.1142 12.3917 21.053 12.4809 20.9658 12.5682L16.5773 16.9565C16.4838 17.0501 16.3701 17.1011 16.2361 17.1095C16.1021 17.1178 15.98 17.0668 15.8698 16.9565C15.7633 16.8501 15.7101 16.7322 15.7101 16.6027C15.7101 16.4732 15.7633 16.3553 15.8698 16.249L20.1101 12.0027L15.8698 7.75647C15.7762 7.66297 15.7252 7.54922 15.7168 7.41522C15.7085 7.28122 15.7595 7.15914 15.8698 7.04897C15.9762 6.94247 16.0941 6.88922 16.2236 6.88922C16.3531 6.88922 16.471 6.94247 16.5773 7.04897L20.9658 11.4372C21.053 11.5246 21.1142 11.6137 21.1496 11.7047C21.1847 11.7957 21.2023 11.8951 21.2023 12.0027Z" fill="#1D1D1F"/>
</g>
</svg>
