<svg width="25" height="24" viewBox="0 0 25 24" fill="none" xmlns="http://www.w3.org/2000/svg">
<mask id="mask0_5029_36630" style="mask-type:alpha" maskUnits="userSpaceOnUse" x="0" y="0" width="25" height="24">
<rect x="0.5" width="24" height="24" fill="#D9D9D9"/>
</mask>
<g mask="url(#mask0_5029_36630)">
<path d="M11.975 14.475L8.34995 10.85C8.29995 10.8 8.26245 10.7458 8.23745 10.6875C8.21245 10.6292 8.19995 10.5667 8.19995 10.5C8.19995 10.3667 8.24578 10.25 8.33745 10.15C8.42912 10.05 8.54995 10 8.69995 10H16.3C16.45 10 16.5708 10.05 16.6625 10.15C16.7541 10.25 16.8 10.3667 16.8 10.5C16.8 10.5333 16.75 10.65 16.65 10.85L13.025 14.475C12.9416 14.5583 12.8583 14.6167 12.775 14.65C12.6916 14.6833 12.6 14.7 12.5 14.7C12.4 14.7 12.3083 14.6833 12.225 14.65C12.1416 14.6167 12.0583 14.5583 11.975 14.475Z" fill="#1D1D1F"/>
</g>
</svg>
