<svg width="26" height="26" viewBox="0 0 26 26" fill="none" xmlns="http://www.w3.org/2000/svg">
<rect x="0.98291" y="1.11719" width="24.3828" height="24.3828" rx="12.1914" fill="white"/>
<rect x="0.98291" y="1.11719" width="24.3828" height="24.3828" rx="12.1914" stroke="#E9E9E9"/>
<mask id="mask0_7362_5963" style="mask-type:alpha" maskUnits="userSpaceOnUse" x="1" y="1" width="25" height="25">
<rect x="1.17432" y="1.30859" width="24" height="24" fill="#D9D9D9"/>
</mask>
<g mask="url(#mask0_7362_5963)">
<path d="M13.1744 19.2891C12.967 19.2891 12.792 19.2177 12.6492 19.0751C12.5066 18.9324 12.4353 18.7573 12.4353 18.5499V14.0518H7.93325C7.72585 14.0518 7.55078 13.9805 7.40804 13.8378C7.26541 13.6951 7.19409 13.52 7.19409 13.3126C7.19409 13.1052 7.26541 12.9301 7.40804 12.7874C7.55078 12.6448 7.72585 12.5735 7.93325 12.5735H12.4314V8.06753C12.4314 7.86013 12.5027 7.68506 12.6453 7.54232C12.7881 7.39969 12.9631 7.32837 13.1705 7.32837C13.3779 7.32837 13.553 7.39969 13.6957 7.54232C13.8384 7.68506 13.9097 7.86013 13.9097 8.06753V12.5696H18.4156C18.623 12.5696 18.7981 12.6409 18.9408 12.7835C19.0835 12.9262 19.1548 13.1013 19.1548 13.3087C19.1548 13.5161 19.0835 13.6912 18.9408 13.8339C18.7981 13.9766 18.623 14.0479 18.4156 14.0479H13.9136V18.5499C13.9136 18.7573 13.8423 18.9324 13.6996 19.0751C13.5569 19.2177 13.3818 19.2891 13.1744 19.2891Z" fill="#1D1D1F"/>
</g>
</svg>
