<svg width="44" height="44" viewBox="0 0 44 44" fill="none" xmlns="http://www.w3.org/2000/svg">
<path d="M15.0271 10.9111H28.9734C29.5397 10.9112 30.0063 11.1042 30.4128 11.5107C30.8194 11.9174 31.0124 12.3838 31.0125 12.9502V31.0449C31.0124 31.7909 30.7217 32.3277 30.0974 32.7354C29.4738 33.1425 28.8553 33.1975 28.1541 32.9004L22.2957 30.3906L21.9998 30.2637L21.7048 30.3906L15.8494 32.8994C15.1468 33.198 14.5277 33.1431 13.9031 32.7354C13.2785 32.3277 12.9881 31.7911 12.988 31.0449V12.9502C12.9881 12.3837 13.181 11.9174 13.5876 11.5107C13.9943 11.1041 14.4606 10.9112 15.0271 10.9111Z" stroke="#CFCFCF" stroke-width="1.5"/>
</svg>
