<svg width="25" height="24" viewBox="0 0 25 24" fill="none" xmlns="http://www.w3.org/2000/svg">
<mask id="mask0_5029_36641" style="mask-type:alpha" maskUnits="userSpaceOnUse" x="0" y="0" width="25" height="24">
<rect x="0.5" width="24" height="24" fill="#D9D9D9"/>
</mask>
<g mask="url(#mask0_5029_36641)">
<path d="M8.69995 13.9998C8.54995 13.9998 8.42912 13.9498 8.33745 13.8498C8.24578 13.7498 8.19995 13.6331 8.19995 13.4998C8.19995 13.4665 8.24995 13.3498 8.34995 13.1498L11.975 9.5248C12.0583 9.44147 12.1416 9.38314 12.225 9.3498C12.3083 9.31647 12.4 9.2998 12.5 9.2998C12.6 9.2998 12.6916 9.31647 12.775 9.3498C12.8583 9.38314 12.9416 9.44147 13.025 9.5248L16.65 13.1498C16.7 13.1998 16.7375 13.254 16.7625 13.3123C16.7875 13.3706 16.8 13.4331 16.8 13.4998C16.8 13.6331 16.7541 13.7498 16.6625 13.8498C16.5708 13.9498 16.45 13.9998 16.3 13.9998H8.69995Z" fill="#1D1D1F"/>
</g>
</svg>
