<svg width="17" height="16" viewBox="0 0 17 16" fill="none" xmlns="http://www.w3.org/2000/svg">
<mask id="mask0_1127_2607" style="mask-type:luminance" maskUnits="userSpaceOnUse" x="0" y="0" width="17" height="16">
<path d="M0.238281 16L16.2383 16L16.2383 0L0.238283 -1.39876e-06L0.238281 16Z" fill="white"/>
</mask>
<g mask="url(#mask0_1127_2607)">
<path d="M1.23828 8C1.23828 11.866 4.37229 15 8.23828 15C12.1043 15 15.2383 11.866 15.2383 8C15.2383 4.13401 12.1043 1 8.23828 0.999999C4.37229 0.999999 1.23828 4.13401 1.23828 8Z" fill="#FF4B4B"/>
<path d="M7.48828 8.25C7.48828 8.66421 7.82407 9 8.23828 9C8.65249 9 8.98828 8.66421 8.98828 8.25L8.98828 4.75C8.98828 4.33579 8.6525 4 8.23828 4C7.82407 4 7.48828 4.33579 7.48828 4.75L7.48828 8.25Z" fill="white"/>
<path d="M7.23828 11C7.23828 11.5523 7.686 12 8.23828 12C8.79057 12 9.23828 11.5523 9.23828 11C9.23828 10.4477 8.79057 10 8.23828 10C7.686 10 7.23828 10.4477 7.23828 11Z" fill="white"/>
</g>
</svg>
