<svg width="49" height="48" viewBox="0 0 49 48" fill="none" xmlns="http://www.w3.org/2000/svg">
<rect x="0.5" width="48" height="48" rx="24" fill="#FF5C00"/>
<path d="M24.5 33.2031C24.1808 33.2031 23.9114 33.0934 23.6918 32.8739C23.4723 32.6542 23.3625 32.3848 23.3625 32.0656V25.1434H16.4342C16.1151 25.1434 15.8457 25.0336 15.626 24.8141C15.4065 24.5945 15.2968 24.325 15.2968 24.0059C15.2968 23.6867 15.4065 23.4173 15.626 23.1976C15.8457 22.9781 16.1151 22.8684 16.4342 22.8684H23.3565V15.9341C23.3565 15.615 23.4663 15.3455 23.6858 15.1259C23.9054 14.9064 24.1748 14.7966 24.494 14.7966C24.8132 14.7966 25.0826 14.9064 25.3023 15.1259C25.5218 15.3455 25.6315 15.615 25.6315 15.9341V22.8624H32.5658C32.8849 22.8624 33.1543 22.9721 33.374 23.1916C33.5935 23.4113 33.7032 23.6807 33.7032 23.9999C33.7032 24.319 33.5935 24.5885 33.374 24.8081C33.1543 25.0276 32.8849 25.1374 32.5658 25.1374H25.6375V32.0656C25.6375 32.3848 25.5278 32.6542 25.3083 32.8739C25.0886 33.0934 24.8192 33.2031 24.5 33.2031Z" fill="white"/>
</svg>
