<svg width="25" height="24" viewBox="0 0 25 24" fill="none" xmlns="http://www.w3.org/2000/svg">
<path d="M10.7421 13.4L8.59209 11.25C8.40876 11.0667 8.17542 10.975 7.89209 10.975C7.60876 10.975 7.37542 11.0667 7.19209 11.25C7.00876 11.4333 6.91709 11.6667 6.91709 11.95C6.91709 12.2333 7.00876 12.4667 7.19209 12.65L10.0421 15.5C10.2421 15.7 10.4754 15.8 10.7421 15.8C11.0088 15.8 11.2421 15.7 11.4421 15.5L17.0921 9.85C17.2754 9.66667 17.3671 9.43333 17.3671 9.15C17.3671 8.86667 17.2754 8.63333 17.0921 8.45C16.9088 8.26667 16.6754 8.175 16.3921 8.175C16.1088 8.175 15.8754 8.26667 15.6921 8.45L10.7421 13.4ZM5.14209 21C4.59209 21 4.12126 20.8042 3.72959 20.4125C3.33792 20.0208 3.14209 19.55 3.14209 19V5C3.14209 4.45 3.33792 3.97917 3.72959 3.5875C4.12126 3.19583 4.59209 3 5.14209 3H19.1421C19.6921 3 20.1629 3.19583 20.5546 3.5875C20.9463 3.97917 21.1421 4.45 21.1421 5V19C21.1421 19.55 20.9463 20.0208 20.5546 20.4125C20.1629 20.8042 19.6921 21 19.1421 21H5.14209Z" fill="#FF5C00"/>
</svg>
