<svg width="25" height="24" viewBox="0 0 25 24" fill="none" xmlns="http://www.w3.org/2000/svg">
<mask id="mask0_3862_16944" style="mask-type:alpha" maskUnits="userSpaceOnUse" x="0" y="0" width="25" height="24">
<rect x="0.5" width="24" height="24" fill="#D9D9D9"/>
</mask>
<g mask="url(#mask0_3862_16944)">
<path d="M12.4999 21.2034C12.1807 21.2034 11.9113 21.0936 11.6916 20.8741C11.4721 20.6545 11.3624 20.385 11.3624 20.0659V13.1436H4.43413C4.11496 13.1436 3.84555 13.0339 3.62588 12.8144C3.40638 12.5947 3.29663 12.3253 3.29663 12.0061C3.29663 11.687 3.40638 11.4175 3.62588 11.1979C3.84555 10.9784 4.11496 10.8686 4.43413 10.8686H11.3564V3.93438C11.3564 3.61521 11.4661 3.34579 11.6856 3.12612C11.9053 2.90662 12.1747 2.79688 12.4939 2.79688C12.813 2.79688 13.0825 2.90662 13.3021 3.12612C13.5216 3.34579 13.6314 3.61521 13.6314 3.93438V10.8626H20.5656C20.8848 10.8626 21.1542 10.9724 21.3739 11.1919C21.5934 11.4115 21.7031 11.681 21.7031 12.0001C21.7031 12.3193 21.5934 12.5887 21.3739 12.8084C21.1542 13.0279 20.8848 13.1376 20.5656 13.1376H13.6374V20.0659C13.6374 20.385 13.5276 20.6545 13.3081 20.8741C13.0885 21.0936 12.819 21.2034 12.4999 21.2034Z" fill="#1D1D1F"/>
</g>
</svg>
