<svg width="24" height="24" viewBox="0 0 24 24" fill="none" xmlns="http://www.w3.org/2000/svg">
<mask id="mask0_7695_7931" style="mask-type:alpha" maskUnits="userSpaceOnUse" x="0" y="0" width="24" height="24">
<rect width="24" height="24" fill="#D9D9D9"/>
</mask>
<g mask="url(#mask0_7695_7931)">
<path d="M11.9973 14.7461C11.8896 14.7461 11.7903 14.7285 11.6993 14.6933C11.6083 14.658 11.5191 14.5968 11.4318 14.5096L7.04353 10.1211C6.94986 10.0276 6.89886 9.91385 6.89053 9.77985C6.88219 9.64585 6.93319 9.52376 7.04353 9.4136C7.14986 9.3071 7.26778 9.25385 7.39728 9.25385C7.52678 9.25385 7.64469 9.3071 7.75103 9.4136L11.9973 13.6538L16.2435 9.4136C16.337 9.31993 16.4508 9.26893 16.5848 9.2606C16.7188 9.25226 16.8409 9.30326 16.951 9.4136C17.0575 9.51993 17.1108 9.63785 17.1108 9.76735C17.1108 9.89685 17.0575 10.0148 16.951 10.1211L12.5628 14.5096C12.4754 14.5968 12.3863 14.658 12.2953 14.6933C12.2043 14.7285 12.1049 14.7461 11.9973 14.7461Z" fill="#1D1D1F"/>
</g>
</svg>
