<svg width="25" height="25" viewBox="0 0 25 25" fill="none" xmlns="http://www.w3.org/2000/svg">
<mask id="mask0_5301_31041" style="mask-type:alpha" maskUnits="userSpaceOnUse" x="0" y="0" width="25" height="25">
<rect x="0.0661621" y="0.845703" width="24" height="24" fill="#CFCFCF"/>
</mask>
<g mask="url(#mask0_5301_31041)">
<path d="M10.6662 14.6457L8.51616 12.4957C8.33283 12.3124 8.0995 12.2207 7.81616 12.2207C7.53283 12.2207 7.2995 12.3124 7.11616 12.4957C6.93283 12.679 6.84116 12.9124 6.84116 13.1957C6.84116 13.479 6.93283 13.7124 7.11616 13.8957L9.96616 16.7457C10.1662 16.9457 10.3995 17.0457 10.6662 17.0457C10.9328 17.0457 11.1662 16.9457 11.3662 16.7457L17.0162 11.0957C17.1995 10.9124 17.2912 10.679 17.2912 10.3957C17.2912 10.1124 17.1995 9.87904 17.0162 9.6957C16.8328 9.51237 16.5995 9.4207 16.3162 9.4207C16.0328 9.4207 15.7995 9.51237 15.6162 9.6957L10.6662 14.6457ZM12.0662 22.8457C10.6828 22.8457 9.38283 22.5832 8.16616 22.0582C6.9495 21.5332 5.89116 20.8207 4.99116 19.9207C4.09116 19.0207 3.37866 17.9624 2.85366 16.7457C2.32866 15.529 2.06616 14.229 2.06616 12.8457C2.06616 11.4624 2.32866 10.1624 2.85366 8.9457C3.37866 7.72904 4.09116 6.6707 4.99116 5.7707C5.89116 4.8707 6.9495 4.1582 8.16616 3.6332C9.38283 3.1082 10.6828 2.8457 12.0662 2.8457C13.4495 2.8457 14.7495 3.1082 15.9662 3.6332C17.1828 4.1582 18.2412 4.8707 19.1412 5.7707C20.0412 6.6707 20.7537 7.72904 21.2787 8.9457C21.8037 10.1624 22.0662 11.4624 22.0662 12.8457C22.0662 14.229 21.8037 15.529 21.2787 16.7457C20.7537 17.9624 20.0412 19.0207 19.1412 19.9207C18.2412 20.8207 17.1828 21.5332 15.9662 22.0582C14.7495 22.5832 13.4495 22.8457 12.0662 22.8457Z" fill="#CFCFCF"/>
</g>
</svg>
